<svg width="16" height="16" viewBox="0 0 16 16" fill="none" xmlns="http://www.w3.org/2000/svg">
<path d="M10.668 5.33203H5.33464M10.668 5.33203C12.1407 5.33203 13.3346 6.52594 13.3346 7.9987V11.9987C13.3346 13.4715 12.1407 14.6654 10.668 14.6654H5.33464C3.86188 14.6654 2.66797 13.4715 2.66797 11.9987V7.9987C2.66797 6.52594 3.86188 5.33203 5.33464 5.33203M10.668 5.33203V3.9987C10.668 2.52594 9.47406 1.33203 8.0013 1.33203C6.52854 1.33203 5.33464 2.52594 5.33464 3.9987V5.33203M9.33464 9.9987C9.33464 10.7351 8.73768 11.332 8.0013 11.332C7.26492 11.332 6.66797 10.7351 6.66797 9.9987C6.66797 9.26232 7.26492 8.66536 8.0013 8.66536C8.73768 8.66536 9.33464 9.26232 9.33464 9.9987Z" stroke="#CDCDCD" stroke-linecap="round" stroke-linejoin="round"/>
</svg>
