<svg width="50" height="128" viewBox="0 0 50 128" fill="none" xmlns="http://www.w3.org/2000/svg">
<path d="M50 0V128C47.3686 99.0004 0.441883 98.4993 0.00303051 63.9997C-0.435822 29.5001 46.93 34.0001 50 0Z" fill="url(#paint0_linear_1254_11021)"/>
<path d="M32.6361 66.6001C32.6361 67.628 31.782 68.4602 30.727 68.4602C29.6719 68.4602 28.8178 67.628 28.8178 66.6001C28.8178 65.5722 29.6719 64.74 30.727 64.74C31.782 64.74 32.6361 65.5722 32.6361 66.6001ZM19.2729 64.74C18.2178 64.74 17.3637 65.5722 17.3637 66.6001C17.3637 67.628 18.2178 68.4602 19.2729 68.4602C20.3279 68.4602 21.182 67.628 21.182 66.6001C21.182 65.5722 20.3279 64.74 19.2729 64.74ZM28.5465 70.3232C28.7141 70.1274 28.6872 69.8338 28.4863 69.6672C28.2854 69.504 27.984 69.5301 27.813 69.7259C27.1163 70.5417 26.0881 71.0114 24.9962 71.0114C23.9042 71.0114 22.8795 70.5448 22.1794 69.7259C22.0119 69.5269 21.7105 69.5008 21.5061 69.6672C21.3019 69.8335 21.275 70.124 21.4458 70.3232C22.3266 71.3511 23.6194 71.9417 24.9927 71.9417C26.3659 71.9417 27.662 71.351 28.5395 70.3232H28.5465ZM38.9996 66.6C38.9996 68.8548 37.9647 70.8778 36.3302 72.2419C34.2237 76.2522 29.9399 79 24.9998 79C20.0596 79 15.7764 76.2525 13.6694 72.2419C12.0382 70.8781 11 68.8548 11 66.6C11 64.3453 12.035 62.3222 13.6694 60.9581C15.6855 57.124 19.6842 54.4547 24.3503 54.2228L24.5914 51.6776C23.734 51.4948 23.0908 50.751 23.0908 49.8601C23.0908 48.8321 23.9449 48 25 48C26.0551 48 26.9092 48.8321 26.9092 49.8601C26.9092 50.751 26.266 51.4948 25.4086 51.6776L25.6497 54.2228C30.3151 54.4513 34.3175 57.1237 36.3306 60.9581C37.9618 62.322 39 64.3453 39 66.6H38.9996ZM38.045 66.6C38.045 63.0105 35.0474 60.0902 31.3634 60.0902H18.6365C14.9522 60.0902 11.9548 63.0107 11.9548 66.6C11.9548 70.1895 14.9524 73.1099 18.6365 73.1099H31.3634C35.0476 73.1099 38.045 70.1894 38.045 66.6Z" fill="white"/>
<circle cx="34" cy="55" r="4" fill="#EA3D40"/>
<circle cx="34" cy="55" r="4" fill="url(#paint1_radial_1254_11021)"/>
<defs>
<linearGradient id="paint0_linear_1254_11021" x1="12.4782" y1="9.79817e-06" x2="60.7204" y2="6.58331" gradientUnits="userSpaceOnUse">
<stop stop-color="#0A66C2"/>
<stop offset="1" stop-color="#00B5D1"/>
</linearGradient>
<radialGradient id="paint1_radial_1254_11021" cx="0" cy="0" r="1" gradientUnits="userSpaceOnUse" gradientTransform="translate(32.2 52.4) rotate(63.435) scale(4.91935)">
<stop stop-color="#EF7678"/>
<stop offset="1" stop-color="#EF7678" stop-opacity="0"/>
</radialGradient>
</defs>
</svg>
