<svg width="64" height="20" viewBox="0 0 64 20" fill="none" xmlns="http://www.w3.org/2000/svg">
<path d="M26.714 13.978C27.8993 13.026 28.828 12.2467 29.5 11.64C30.172 11.024 30.7367 10.3847 31.194 9.722C31.6607 9.05 31.894 8.392 31.894 7.748C31.894 7.14133 31.7447 6.66533 31.446 6.32C31.1567 5.96533 30.6853 5.788 30.032 5.788C29.3973 5.788 28.9027 5.98867 28.548 6.39C28.2027 6.782 28.016 7.30933 27.988 7.972H26.756C26.7933 6.92667 27.1107 6.11933 27.708 5.55C28.3053 4.98067 29.0753 4.696 30.018 4.696C30.9793 4.696 31.74 4.962 32.3 5.494C32.8693 6.026 33.154 6.75867 33.154 7.692C33.154 8.46667 32.9207 9.22267 32.454 9.96C31.9967 10.688 31.474 11.332 30.886 11.892C30.298 12.4427 29.5467 13.0867 28.632 13.824H33.448V14.888H26.714V13.978ZM34.9207 9.834C34.9207 8.22867 35.1821 6.978 35.7047 6.082C36.2274 5.17667 37.1421 4.724 38.4487 4.724C39.7461 4.724 40.6561 5.17667 41.1787 6.082C41.7014 6.978 41.9627 8.22867 41.9627 9.834C41.9627 11.4673 41.7014 12.7367 41.1787 13.642C40.6561 14.5473 39.7461 15 38.4487 15C37.1421 15 36.2274 14.5473 35.7047 13.642C35.1821 12.7367 34.9207 11.4673 34.9207 9.834ZM40.7027 9.834C40.7027 9.022 40.6467 8.336 40.5347 7.776C40.4321 7.20667 40.2127 6.74933 39.8767 6.404C39.5501 6.05867 39.0741 5.886 38.4487 5.886C37.8141 5.886 37.3287 6.05867 36.9927 6.404C36.6661 6.74933 36.4467 7.20667 36.3347 7.776C36.2321 8.336 36.1807 9.022 36.1807 9.834C36.1807 10.674 36.2321 11.3787 36.3347 11.948C36.4467 12.5173 36.6661 12.9747 36.9927 13.32C37.3287 13.6653 37.8141 13.838 38.4487 13.838C39.0741 13.838 39.5501 13.6653 39.8767 13.32C40.2127 12.9747 40.4321 12.5173 40.5347 11.948C40.6467 11.3787 40.7027 10.674 40.7027 9.834ZM44.3278 15.084C44.0851 15.084 43.8798 15 43.7118 14.832C43.5438 14.664 43.4598 14.4587 43.4598 14.216C43.4598 13.9733 43.5438 13.768 43.7118 13.6C43.8798 13.432 44.0851 13.348 44.3278 13.348C44.5611 13.348 44.7571 13.432 44.9158 13.6C45.0838 13.768 45.1678 13.9733 45.1678 14.216C45.1678 14.4587 45.0838 14.664 44.9158 14.832C44.7571 15 44.5611 15.084 44.3278 15.084ZM44.3278 9.092C44.0851 9.092 43.8798 9.008 43.7118 8.84C43.5438 8.672 43.4598 8.46667 43.4598 8.224C43.4598 7.98133 43.5438 7.776 43.7118 7.608C43.8798 7.44 44.0851 7.356 44.3278 7.356C44.5611 7.356 44.7571 7.44 44.9158 7.608C45.0838 7.776 45.1678 7.98133 45.1678 8.224C45.1678 8.46667 45.0838 8.672 44.9158 8.84C44.7571 9.008 44.5611 9.092 44.3278 9.092ZM46.6922 9.834C46.6922 8.22867 46.9536 6.978 47.4762 6.082C47.9989 5.17667 48.9136 4.724 50.2202 4.724C51.5176 4.724 52.4276 5.17667 52.9502 6.082C53.4729 6.978 53.7342 8.22867 53.7342 9.834C53.7342 11.4673 53.4729 12.7367 52.9502 13.642C52.4276 14.5473 51.5176 15 50.2202 15C48.9136 15 47.9989 14.5473 47.4762 13.642C46.9536 12.7367 46.6922 11.4673 46.6922 9.834ZM52.4742 9.834C52.4742 9.022 52.4182 8.336 52.3062 7.776C52.2036 7.20667 51.9842 6.74933 51.6482 6.404C51.3216 6.05867 50.8456 5.886 50.2202 5.886C49.5856 5.886 49.1002 6.05867 48.7642 6.404C48.4376 6.74933 48.2182 7.20667 48.1062 7.776C48.0036 8.336 47.9522 9.022 47.9522 9.834C47.9522 10.674 48.0036 11.3787 48.1062 11.948C48.2182 12.5173 48.4376 12.9747 48.7642 13.32C49.1002 13.6653 49.5856 13.838 50.2202 13.838C50.8456 13.838 51.3216 13.6653 51.6482 13.32C51.9842 12.9747 52.2036 12.5173 52.3062 11.948C52.4182 11.3787 52.4742 10.674 52.4742 9.834ZM55.4832 9.834C55.4832 8.22867 55.7446 6.978 56.2672 6.082C56.7899 5.17667 57.7046 4.724 59.0112 4.724C60.3086 4.724 61.2186 5.17667 61.7412 6.082C62.2639 6.978 62.5252 8.22867 62.5252 9.834C62.5252 11.4673 62.2639 12.7367 61.7412 13.642C61.2186 14.5473 60.3086 15 59.0112 15C57.7046 15 56.7899 14.5473 56.2672 13.642C55.7446 12.7367 55.4832 11.4673 55.4832 9.834ZM61.2652 9.834C61.2652 9.022 61.2092 8.336 61.0972 7.776C60.9946 7.20667 60.7752 6.74933 60.4392 6.404C60.1126 6.05867 59.6366 5.886 59.0112 5.886C58.3766 5.886 57.8912 6.05867 57.5552 6.404C57.2286 6.74933 57.0092 7.20667 56.8972 7.776C56.7946 8.336 56.7432 9.022 56.7432 9.834C56.7432 10.674 56.7946 11.3787 56.8972 11.948C57.0092 12.5173 57.2286 12.9747 57.5552 13.32C57.8912 13.6653 58.3766 13.838 59.0112 13.838C59.6366 13.838 60.1126 13.6653 60.4392 13.32C60.7752 12.9747 60.9946 12.5173 61.0972 11.948C61.2092 11.3787 61.2652 10.674 61.2652 9.834Z" fill="white" fill-opacity="0.7"/>
<g clip-path="url(#clip0_1254_10700)">
<path d="M17.46 12.5405C17.46 16.6598 14.1207 19.2218 10.0014 19.2218C5.88219 19.2218 2.54297 16.6598 2.54297 12.5405C2.54297 8.42129 5.88223 5.08203 10.0015 5.08203C14.1207 5.08203 17.46 8.42133 17.46 12.5405Z" fill="#F2BA43"/>
<path d="M17.4561 12.543C17.4561 16.6622 14.1168 20.0015 9.99762 20.0015C5.8784 20.0015 2.53906 16.6622 2.53906 12.543H17.4561Z" fill="#EDA21D"/>
<path d="M16.6789 12.5406C16.6789 16.2306 13.6876 18.8266 9.99766 18.8266C6.30773 18.8266 3.31641 16.2306 3.31641 12.5406C3.31641 8.85066 6.30773 5.85938 9.99766 5.85938C13.6876 5.85938 16.6789 8.8507 16.6789 12.5406Z" fill="#EDA21D"/>
<path d="M16.6789 12.543C16.6789 16.2329 13.6876 19.2242 9.99766 19.2242C6.30773 19.2242 3.31641 16.2329 3.31641 12.543H16.6789Z" fill="#F2BA43"/>
<path d="M9.99844 18.5047C13.2919 18.5047 15.9617 15.8348 15.9617 12.5414C15.9617 9.24798 13.2919 6.57812 9.99844 6.57812C6.70501 6.57812 4.03516 9.24798 4.03516 12.5414C4.03516 15.8348 6.70501 18.5047 9.99844 18.5047Z" fill="#E6E7E8"/>
<path d="M10.0011 17.4162C12.694 17.4162 14.8771 15.2331 14.8771 12.5401C14.8771 9.84715 12.694 7.66406 10.0011 7.66406C7.30808 7.66406 5.125 9.84715 5.125 12.5401C5.125 15.2331 7.30808 17.4162 10.0011 17.4162Z" fill="#D1D3D4"/>
<path d="M10.0007 16.8334C10.2232 16.8334 10.4037 16.6529 10.4037 16.4304C10.4037 16.2078 10.2232 16.0273 10.0007 16.0273C9.77809 16.0273 9.59766 16.2078 9.59766 16.4304C9.59766 16.6529 9.77809 16.8334 10.0007 16.8334Z" fill="#414042"/>
<path d="M13.3296 2.00969C13.3296 0.882773 11.9138 0 10.1062 0C8.29867 0 6.88281 0.882773 6.88281 2.00969C6.88281 3.06508 8.1248 3.90625 9.76715 4.00879V5.52121C9.76715 5.70852 9.91891 5.86027 10.1062 5.86027C10.2935 5.86027 10.4453 5.70852 10.4453 5.52121V4.00879C12.0877 3.90625 13.3296 3.06508 13.3296 2.00969ZM10.4453 3.32914V3.24867C10.4453 3.06137 10.2935 2.90961 10.1062 2.90961C9.91891 2.90961 9.76715 3.06137 9.76715 3.24867V3.32914C8.43398 3.23605 7.5609 2.60371 7.5609 2.00969C7.56094 1.3666 8.58371 0.678125 10.1062 0.678125C11.6287 0.678125 12.6514 1.36664 12.6514 2.00969C12.6515 2.60371 11.7784 3.23605 10.4453 3.32914Z" fill="#ADADAD"/>
<path d="M10.2694 12.3336L7.34552 8.55351C7.23088 8.40542 7.01806 8.37816 6.8699 8.49277C6.72181 8.60734 6.69459 8.82031 6.80916 8.96839L9.73302 12.7485C9.7999 12.8348 9.90005 12.8801 10.0015 12.8801C10.0739 12.8801 10.1469 12.857 10.2087 12.8093C10.3568 12.6947 10.384 12.4817 10.2694 12.3336Z" fill="#414042"/>
<path d="M10.1122 12.2202L7.09797 11.1826C6.92086 11.1217 6.72793 11.2158 6.66699 11.3928C6.60605 11.5699 6.70015 11.7629 6.87718 11.8238L9.89144 12.8613C9.92801 12.8739 9.96523 12.8799 10.0018 12.8799C10.1425 12.8799 10.274 12.7916 10.3224 12.6511C10.3834 12.474 10.2893 12.2811 10.1122 12.2202Z" fill="#ED4850"/>
<path d="M14.4065 12.1992H9.99922C9.81191 12.1992 9.66016 12.351 9.66016 12.5383C9.66016 12.7256 9.81191 12.8773 9.99922 12.8773H14.4064C14.5938 12.8773 14.7455 12.7256 14.7455 12.5383C14.7455 12.351 14.5938 12.1992 14.4065 12.1992Z" fill="#414042"/>
</g>
<defs>
<clipPath id="clip0_1254_10700">
<rect width="20" height="20" fill="white"/>
</clipPath>
</defs>
</svg>
