<svg width="24" height="24" viewBox="0 0 24 24" fill="none" xmlns="http://www.w3.org/2000/svg">
<g clip-path="url(#clip0_1433_8055)">
<path d="M6.32978 7.34662C6.21578 8.56266 6.13577 10.7147 6.8538 11.6308C6.8538 11.6308 6.51579 9.26669 9.54589 6.30059C10.7659 5.10655 11.0479 3.48249 10.6219 2.26445C10.3799 1.57442 9.9379 1.00441 9.55389 0.606391C9.32988 0.372383 9.50189 -0.01363 9.8279 0.000370526C11.8 0.0883735 14.9961 0.636392 16.3541 4.04451C16.9501 5.54056 16.9941 7.08661 16.7101 8.65867C16.5301 9.6627 15.8901 11.8948 17.3502 12.1688C18.3922 12.3648 18.8962 11.5368 19.1222 10.9407C19.2162 10.6927 19.5422 10.6307 19.7182 10.8287C21.4783 12.8308 21.6283 15.1889 21.2643 17.219C20.5603 21.1431 16.5861 23.9992 12.638 23.9992C7.70583 23.9992 3.77969 21.1771 2.76166 16.0689C2.35164 14.0069 2.55965 9.92671 5.73976 7.04661C5.97577 6.83061 6.36178 7.02261 6.32978 7.34662Z" fill="url(#paint0_radial_1433_8055)"/>
<path d="M14.4403 14.686C12.6223 12.3459 13.4363 9.67582 13.8823 8.61179C13.9423 8.47178 13.7823 8.33978 13.6563 8.42578C12.8743 8.9578 11.2722 10.2098 10.5262 11.9719C9.51618 14.354 9.58818 15.52 10.1862 16.9441C10.5462 17.8021 10.1282 17.9841 9.91819 18.0161C9.71419 18.0481 9.52618 17.9121 9.37618 17.7701C8.94464 17.3558 8.63712 16.8294 8.48814 16.2501C8.45614 16.126 8.29414 16.092 8.22014 16.194C7.66012 16.9681 7.37011 18.2101 7.35611 19.0881C7.3121 21.8022 9.55418 24.0023 12.2663 24.0023C15.6844 24.0023 18.1745 20.2222 16.2104 17.0621C15.6404 16.142 15.1044 15.54 14.4403 14.686Z" fill="url(#paint1_radial_1433_8055)"/>
</g>
<defs>
<radialGradient id="paint0_radial_1433_8055" cx="0" cy="0" r="1" gradientUnits="userSpaceOnUse" gradientTransform="translate(11.6611 24.0614) rotate(-179.751) scale(14.118 23.1648)">
<stop offset="0.314" stop-color="#FF9800"/>
<stop offset="0.662" stop-color="#FF6D00"/>
<stop offset="0.972" stop-color="#F44336"/>
</radialGradient>
<radialGradient id="paint1_radial_1433_8055" cx="0" cy="0" r="1" gradientUnits="userSpaceOnUse" gradientTransform="translate(12.4543 10.0135) rotate(90.5787) scale(14.7718 11.1169)">
<stop offset="0.214" stop-color="#FFF176"/>
<stop offset="0.328" stop-color="#FFF27D"/>
<stop offset="0.487" stop-color="#FFF48F"/>
<stop offset="0.672" stop-color="#FFF7AD"/>
<stop offset="0.793" stop-color="#FFF9C4"/>
<stop offset="0.822" stop-color="#FFF8BD" stop-opacity="0.804"/>
<stop offset="0.863" stop-color="#FFF6AB" stop-opacity="0.529"/>
<stop offset="0.91" stop-color="#FFF38D" stop-opacity="0.209"/>
<stop offset="0.941" stop-color="#FFF176" stop-opacity="0"/>
</radialGradient>
<clipPath id="clip0_1433_8055">
<rect width="24" height="24" fill="white"/>
</clipPath>
</defs>
</svg>
