<svg width="35" height="35" viewBox="0 0 35 35" fill="none" xmlns="http://www.w3.org/2000/svg">
<path d="M4.48477 8.67578C4.48477 8.67578 2.72109 8.81523 2.48594 9.21172C2.24805 9.6082 2.23438 10.218 2.23438 10.8879C2.23438 11.5605 2.20703 13.1027 2.20703 13.1027L2.62812 14.0078C2.62812 14.0078 2.70742 25.5441 2.70742 25.9023C2.70742 26.2578 2.70742 26.6926 3.22148 26.9688C3.73555 27.2449 16.8004 33.5559 17.2078 33.7254C17.823 33.9797 18.1156 33.884 18.1156 33.884L32.6324 9.60547C32.6324 9.60547 32.5859 8.94102 31.9816 8.78242C31.6344 8.69492 4.48477 8.67578 4.48477 8.67578Z" fill="#F5B03E"/>
<path d="M17.9589 16.6569C17.7374 17.2667 17.8386 23.5722 17.8768 28.1577C17.9151 32.7405 17.7593 33.6894 17.8768 33.848C17.9944 34.0066 18.3143 33.8534 19.2194 33.4515C20.9011 32.7077 28.9784 28.7101 29.5718 28.3546C30.1651 27.9991 31.6143 27.2636 31.8522 26.8671C32.0901 26.4706 32.2186 22.7819 32.2979 19.8206C32.3772 16.8566 32.4565 14.4859 32.4565 14.4859L32.812 13.4194C32.812 13.4194 32.7354 10.5374 32.7218 10.2202C32.6972 9.69523 32.6397 9.42452 32.5057 9.49015C32.3143 9.58038 30.7175 10.8901 26.4901 12.9464C23.835 14.2343 18.112 16.2359 17.9589 16.6569Z" fill="#E07F14"/>
<path d="M17.9994 3.06367C16.8154 3.00898 13.5752 4.88203 10.4525 5.90742C7.32986 6.93281 2.61579 8.99453 2.57478 9.11484C2.5365 9.23242 4.47243 10.0992 5.70837 10.6926C7.17673 11.3953 12.7822 14.0504 13.8076 14.4852C14.8357 14.9199 17.2857 15.9371 17.6795 15.907C18.2318 15.8688 23.449 13.8125 26.0959 12.5492C28.7427 11.2859 32.0513 9.32813 32.0951 8.85234C32.1142 8.63906 27.2279 6.81523 24.7916 5.71328C20.0884 3.5832 18.8662 3.10469 17.9994 3.06367Z" fill="#FDD717"/>
<path d="M2.22109 13.609C2.26211 14.123 2.54375 14.3062 3.26016 14.618C3.97656 14.9297 17.5199 21.9652 17.8316 21.9652C18.1434 21.9652 18.2363 20.8496 17.8945 20.8797C17.7086 20.8961 13.2598 18.7824 9.10352 16.6715C5.57617 14.8832 2.19922 13.0977 2.19922 13.0977L2.22109 13.609Z" fill="#E37D14"/>
<path d="M32.8164 13.3945C32.8164 13.3945 18.3543 20.75 18.2121 20.8211C18.0699 20.8922 17.843 20.8676 17.843 20.8676L17.832 21.9641C17.832 21.9641 17.966 21.9941 18.1164 21.9477C18.2039 21.9203 32.398 14.573 32.4609 14.5512C32.5238 14.5293 32.7973 14.3652 32.8547 14.018C32.9039 13.7391 32.8164 13.3945 32.8164 13.3945Z" fill="#BA5E0D"/>
<path d="M7.89023 26.6391L10.7203 30.85L11.959 31.2738C11.959 31.2738 12.0602 26.6801 12.1012 23.2758C12.1586 18.302 12.1367 13.7656 12.2078 13.5086C12.3254 13.0738 17.8297 11.2883 17.8297 11.2883C17.8297 11.2883 24.0477 13.2379 24.2445 13.6727C24.332 13.8641 24.2637 17.0852 24.2445 20.8395C24.2199 25.5809 24.2281 31.0551 24.2281 31.0551C24.2281 31.0551 24.8707 31.0523 24.9473 30.8145C25.0266 30.5766 25.3438 28.7418 25.3438 28.7418L27.7555 12.6664L28.9805 11.0859L27.2797 7.84844L20.3016 4.41406L17.9035 4.95273L15.3086 4.55625L7.07812 10.4707L8.03789 12.4176L10.3922 13.618L7.89023 26.6391Z" fill="#AF0F1B"/>
<path d="M24.9593 13.5055C24.8089 13.8363 24.8964 30.8852 24.8964 30.8852C24.8964 30.8852 25.6484 30.4695 26.6163 30.0047C27.5788 29.5426 28.2706 29.2555 28.3308 29.0148C28.3909 28.7742 28.4976 11.9141 28.4976 11.9141L24.9593 13.5055Z" fill="#DC0D28"/>
<path d="M11.3055 13.152C11.3957 13.2504 11.248 30.9418 11.0648 30.9828C10.9199 31.0184 7.625 29.5473 7.625 29.3969C7.625 29.2465 7.89023 12.3398 7.89023 12.3398C7.89023 12.3398 11.0375 12.8512 11.3055 13.152Z" fill="#FF2A23"/>
<path d="M17.8383 3.89844C16.9277 3.89844 15.9215 4.1582 15.6289 4.92109C15.3363 5.68398 15.2707 6.81875 15.2707 7.66641C15.2707 8.47852 15.1395 10.5566 17.6414 10.5238C20.1434 10.491 20.2172 9.56406 20.2555 7.51875C20.2883 5.8125 20.0613 4.98398 19.8344 4.62852C19.632 4.30859 18.9594 3.89844 17.8383 3.89844Z" fill="#FF2A23"/>
<path d="M16.3882 8.11709C16.957 8.14991 17.2003 6.9003 17.6378 6.2167C18.0753 5.53584 18.532 5.0792 18.3679 4.72373C18.2339 4.42842 17.0445 4.33272 16.4019 5.22686C15.9507 5.8585 15.8714 8.08702 16.3882 8.11709Z" fill="#FCC9D2"/>
<path d="M20.0508 4.48868C20.0508 4.48868 20.8574 5.309 21.068 6.91681C21.2785 8.52462 21.0352 9.77423 21.0352 9.77423C21.0352 9.77423 25.0437 9.65392 26.4273 9.91915C27.7918 10.1844 28.2676 10.7859 28.2676 11.2234C28.2676 11.6609 27.3707 12.0137 26.4602 11.9481C25.5496 11.8824 24.9344 11.8332 24.8195 12.0629C24.7047 12.2926 24.8688 12.6481 26.1348 12.7438C27.4008 12.8422 28.8637 12.6617 29.3176 11.0867C29.7715 9.51173 29.7879 6.78282 29.6266 4.81681C29.4652 2.85079 29.1098 1.72696 28.2293 1.3004C27.3023 0.854699 24.9809 0.780871 22.7879 2.01407C20.5949 3.24728 20.0508 4.48868 20.0508 4.48868Z" fill="#FF2A23"/>
<path d="M24.5916 2.62045C24.3073 2.25404 23.3913 2.26498 22.9018 2.831C22.3823 3.43256 22.2674 5.72123 22.9346 5.85248C23.6893 6.00014 23.5526 4.7642 24.1049 4.00131C24.6463 3.25482 24.8678 2.97865 24.5916 2.62045Z" fill="#FCC9D2"/>
<path d="M15.4155 4.5682C15.4155 4.5682 12.3448 0.988902 8.83662 1.04359C6.72568 1.0764 6.18975 2.2932 6.0749 2.79632C5.96006 3.29945 5.08506 8.30335 6.25264 11.0131C7.42022 13.7229 9.84287 13.0202 10.2229 12.9327C10.7097 12.8178 11.746 12.4623 11.6476 12.0877C11.5491 11.7131 8.10654 13.0612 8.07373 11.519C8.04092 9.97679 10.5101 9.81273 11.6476 9.77992C12.7851 9.7471 14.7347 10.0069 14.7347 10.0069C14.7347 10.0069 14.3929 8.13929 14.6198 6.80765C14.8468 5.47601 15.4155 4.5682 15.4155 4.5682Z" fill="#FF2A23"/>
<path d="M7.89509 2.34487C7.45759 2.79878 7.27713 5.41557 7.5533 6.7144C7.82947 8.01323 8.07283 8.56557 8.64158 8.45347C9.11736 8.35776 9.40447 5.80932 9.63142 4.91245C9.87478 3.95542 10.4763 2.93823 10.233 2.49253C9.86111 1.80893 8.35173 1.87182 7.89509 2.34487Z" fill="#FCC9D2"/>
</svg>
