<svg width="24" height="24" viewBox="0 0 24 24" fill="none" xmlns="http://www.w3.org/2000/svg">
<path fill-rule="evenodd" clip-rule="evenodd" d="M5.45926 2.46002C5.75216 2.16712 5.75216 1.69225 5.45926 1.39936C5.16637 1.10646 4.6915 1.10646 4.3986 1.39936C3.40037 2.39759 2.60853 3.58266 2.0683 4.88691C1.52806 6.19116 1.25 7.58905 1.25 9.00076C1.25 10.4125 1.52806 11.8104 2.0683 13.1146C2.60853 14.4189 3.40037 15.6039 4.3986 16.6022C5.39683 17.6004 6.5819 18.3922 7.88615 18.9325C8.9589 19.3768 10.095 19.6438 11.25 19.7246L11.2501 21.2507H9.00015C8.58593 21.2507 8.25015 21.5865 8.25015 22.0007C8.25015 22.415 8.58593 22.7507 9.00015 22.7507H15.0001C15.4144 22.7507 15.7501 22.415 15.7501 22.0007C15.7501 21.5865 15.4144 21.2507 15.0001 21.2507H12.7501L12.75 19.7246C13.905 19.6438 15.0411 19.3768 16.1138 18.9325C17.4181 18.3922 18.6032 17.6004 19.6014 16.6022C19.8943 16.3093 19.8943 15.8344 19.6014 15.5415C19.3085 15.2486 18.8336 15.2486 18.5407 15.5415C17.6818 16.4004 16.6621 17.0818 15.5398 17.5466C14.4176 18.0115 13.2147 18.2508 12 18.2508C10.7853 18.2508 9.58244 18.0115 8.46018 17.5466C7.33792 17.0818 6.31821 16.4004 5.45926 15.5415C4.60032 14.6826 3.91897 13.6628 3.45412 12.5406C2.98926 11.4183 2.75 10.2155 2.75 9.00076C2.75 7.78603 2.98926 6.5832 3.45411 5.46093C3.91897 4.33867 4.60032 3.31896 5.45926 2.46002ZM12 16C15.866 16 19 12.866 19 9C19 5.13401 15.866 2 12 2C8.13401 2 5 5.13401 5 9C5 12.866 8.13401 16 12 16Z" fill="#A5A5A5"/>
</svg>
