<svg width="14" height="20" viewBox="0 0 14 20" fill="none" xmlns="http://www.w3.org/2000/svg">
<path fill-rule="evenodd" clip-rule="evenodd" d="M11 15.75V16C11 18.2091 9.20914 20 7 20C4.79086 20 3 18.2091 3 16V15.75H6.95635C6.97079 15.7508 6.98535 15.7512 7 15.7512C7.01465 15.7512 7.02921 15.7508 7.04365 15.75H11ZM11 14.25V13.7887C11 13.1349 11.3334 12.5363 11.8085 12.0871C13.158 10.8111 14 9.00387 14 7C14 3.13401 10.866 0 7 0C3.13401 0 0 3.13401 0 7C0 9.00387 0.842013 10.8111 2.19153 12.0871C2.66659 12.5363 3 13.1349 3 13.7887V14.25H6.25V9.31191L4.46967 7.53158C4.17678 7.23869 4.17678 6.76381 4.46967 6.47092C4.76256 6.17803 5.23744 6.17803 5.53033 6.47092L7 7.94059L8.46967 6.47092C8.76256 6.17803 9.23744 6.17803 9.53033 6.47092C9.82322 6.76381 9.82322 7.23869 9.53033 7.53158L7.75 9.31191V14.25H11Z" fill="#A5A5A5"/>
</svg>
