<svg width="32" height="32" viewBox="0 0 32 32" fill="none" xmlns="http://www.w3.org/2000/svg">
<circle cx="16" cy="16" r="15" fill="#51CDDE" fill-opacity="0.1" stroke="url(#paint0_linear_1254_10720)"/>
<path fill-rule="evenodd" clip-rule="evenodd" d="M15.7 7.75H15.6667H15.6667C14.4348 7.74999 13.4643 7.74999 12.6833 7.8138C11.8866 7.8789 11.2212 8.01413 10.6165 8.32222C9.6287 8.82555 8.82555 9.6287 8.32222 10.6165C8.01413 11.2212 7.8789 11.8866 7.8138 12.6833C7.74999 13.4643 7.74999 14.4348 7.75 15.6667V15.6667V15.7V16.3V16.3333C7.74999 17.5652 7.74999 18.5357 7.8138 19.3167C7.8789 20.1134 8.01413 20.7788 8.32222 21.3835C8.82555 22.3713 9.6287 23.1744 10.6165 23.6778C11.2212 23.9859 11.8866 24.1211 12.6833 24.1862C13.4643 24.25 14.4348 24.25 15.6667 24.25H15.7H16.3H16.3333C17.5652 24.25 18.5357 24.25 19.3167 24.1862C20.1134 24.1211 20.7788 23.9859 21.3835 23.6778C22.3713 23.1744 23.1744 22.3713 23.6778 21.3835C23.9859 20.7788 24.1211 20.1134 24.1862 19.3167C24.25 18.5357 24.25 17.5652 24.25 16.3333V16.3V15.7V15.6667C24.25 14.4348 24.25 13.4643 24.1862 12.6833C24.1211 11.8866 23.9859 11.2212 23.6778 10.6165C23.1744 9.6287 22.3713 8.82555 21.3835 8.32222C20.7788 8.01413 20.1134 7.8789 19.3167 7.8138C18.5357 7.74999 17.5652 7.74999 16.3333 7.75H16.3H15.7ZM9.34007 19.5094C9.40289 20.0372 9.50514 20.401 9.65873 20.7025C10.0183 21.4081 10.5919 21.9817 11.2975 22.3413C11.6555 22.5237 12.1015 22.6337 12.8055 22.6912C13.5182 22.7494 14.4275 22.75 15.7 22.75H16.3C17.5725 22.75 18.4818 22.7494 19.1945 22.6912C19.8985 22.6337 20.3445 22.5237 20.7025 22.3413C21.4081 21.9817 21.9817 21.4081 22.3413 20.7025C22.4949 20.401 22.5971 20.0372 22.6599 19.5094C22.3212 19.1783 22.0338 18.8998 21.7779 18.687C21.4897 18.4474 21.1932 18.2488 20.8383 18.1353C20.2931 17.9607 19.7069 17.9607 19.1617 18.1353C18.8068 18.2489 18.5102 18.4475 18.2219 18.6872C18.0658 18.8171 17.8979 18.9714 17.7138 19.1471L16.7931 18.0827L16.7725 18.0589L16.7725 18.0589C16.4028 17.6315 16.0952 17.2758 15.8208 17.0075C15.5353 16.7283 15.2366 16.4931 14.8679 16.3509C14.3046 16.1336 13.6854 16.1078 13.1059 16.2775C12.7267 16.3885 12.4094 16.5981 12.1018 16.8525C11.806 17.0971 11.4698 17.426 11.0659 17.8211L11.0659 17.8211L11.0659 17.8211L11.0434 17.8432L9.34007 19.5094ZM19.3333 14.3333C20.2538 14.3333 21 13.5871 21 12.6667C21 11.7462 20.2538 11 19.3333 11C18.4129 11 17.6667 11.7462 17.6667 12.6667C17.6667 13.5871 18.4129 14.3333 19.3333 14.3333Z" fill="#51CDDE"/>
<path fill-rule="evenodd" clip-rule="evenodd" d="M15.7 7.75H15.6667H15.6667C14.4348 7.74999 13.4643 7.74999 12.6833 7.8138C11.8866 7.8789 11.2212 8.01413 10.6165 8.32222C9.6287 8.82555 8.82555 9.6287 8.32222 10.6165C8.01413 11.2212 7.8789 11.8866 7.8138 12.6833C7.74999 13.4643 7.74999 14.4348 7.75 15.6667V15.6667V15.7V16.3V16.3333C7.74999 17.5652 7.74999 18.5357 7.8138 19.3167C7.8789 20.1134 8.01413 20.7788 8.32222 21.3835C8.82555 22.3713 9.6287 23.1744 10.6165 23.6778C11.2212 23.9859 11.8866 24.1211 12.6833 24.1862C13.4643 24.25 14.4348 24.25 15.6667 24.25H15.7H16.3H16.3333C17.5652 24.25 18.5357 24.25 19.3167 24.1862C20.1134 24.1211 20.7788 23.9859 21.3835 23.6778C22.3713 23.1744 23.1744 22.3713 23.6778 21.3835C23.9859 20.7788 24.1211 20.1134 24.1862 19.3167C24.25 18.5357 24.25 17.5652 24.25 16.3333V16.3V15.7V15.6667C24.25 14.4348 24.25 13.4643 24.1862 12.6833C24.1211 11.8866 23.9859 11.2212 23.6778 10.6165C23.1744 9.6287 22.3713 8.82555 21.3835 8.32222C20.7788 8.01413 20.1134 7.8789 19.3167 7.8138C18.5357 7.74999 17.5652 7.74999 16.3333 7.75H16.3H15.7ZM9.34007 19.5094C9.40289 20.0372 9.50514 20.401 9.65873 20.7025C10.0183 21.4081 10.5919 21.9817 11.2975 22.3413C11.6555 22.5237 12.1015 22.6337 12.8055 22.6912C13.5182 22.7494 14.4275 22.75 15.7 22.75H16.3C17.5725 22.75 18.4818 22.7494 19.1945 22.6912C19.8985 22.6337 20.3445 22.5237 20.7025 22.3413C21.4081 21.9817 21.9817 21.4081 22.3413 20.7025C22.4949 20.401 22.5971 20.0372 22.6599 19.5094C22.3212 19.1783 22.0338 18.8998 21.7779 18.687C21.4897 18.4474 21.1932 18.2488 20.8383 18.1353C20.2931 17.9607 19.7069 17.9607 19.1617 18.1353C18.8068 18.2489 18.5102 18.4475 18.2219 18.6872C18.0658 18.8171 17.8979 18.9714 17.7138 19.1471L16.7931 18.0827L16.7725 18.0589L16.7725 18.0589C16.4028 17.6315 16.0952 17.2758 15.8208 17.0075C15.5353 16.7283 15.2366 16.4931 14.8679 16.3509C14.3046 16.1336 13.6854 16.1078 13.1059 16.2775C12.7267 16.3885 12.4094 16.5981 12.1018 16.8525C11.806 17.0971 11.4698 17.426 11.0659 17.8211L11.0659 17.8211L11.0659 17.8211L11.0434 17.8432L9.34007 19.5094ZM19.3333 14.3333C20.2538 14.3333 21 13.5871 21 12.6667C21 11.7462 20.2538 11 19.3333 11C18.4129 11 17.6667 11.7462 17.6667 12.6667C17.6667 13.5871 18.4129 14.3333 19.3333 14.3333Z" fill="url(#paint1_radial_1254_10720)" fill-opacity="0.5"/>
<defs>
<linearGradient id="paint0_linear_1254_10720" x1="1" y1="1" x2="32.1502" y2="2.24601" gradientUnits="userSpaceOnUse">
<stop stop-color="#51CDDE"/>
<stop offset="1" stop-color="#51CDDE" stop-opacity="0.6"/>
</linearGradient>
<radialGradient id="paint1_radial_1254_10720" cx="0" cy="0" r="1" gradientUnits="userSpaceOnUse" gradientTransform="translate(16.2115 8.56424) rotate(90) scale(8.54957 13.9064)">
<stop stop-color="#E2FFFE"/>
<stop offset="1" stop-color="#E2FFFE" stop-opacity="0"/>
</radialGradient>
</defs>
</svg>
