<svg width="16" height="16" viewBox="0 0 16 16" fill="none" xmlns="http://www.w3.org/2000/svg">
<g clip-path="url(#clip0_1254_10938)">
<path fill-rule="evenodd" clip-rule="evenodd" d="M6.86272 1.93644C4.1593 2.43986 2.07601 4.707 1.85201 7.4987H4.85356C4.98768 5.48808 5.68665 3.56087 6.86272 1.93644ZM7.9987 0.832031C4.04066 0.832031 0.832031 4.04066 0.832031 7.9987C0.832031 11.9567 4.04066 15.1654 7.9987 15.1654C11.9567 15.1654 15.1654 11.9567 15.1654 7.9987C15.1654 4.04066 11.9567 0.832031 7.9987 0.832031ZM9.13468 1.93644C10.3107 3.56087 11.0097 5.48808 11.1438 7.4987H14.1454C13.9214 4.707 11.8381 2.43986 9.13468 1.93644ZM10.1414 7.4987C9.99583 5.52154 9.24764 3.63637 7.9987 2.09785C6.74975 3.63637 6.00157 5.52154 5.85601 7.4987H10.1414ZM5.85601 8.4987H10.1414C9.99583 10.4759 9.24764 12.361 7.9987 13.8995C6.74975 12.361 6.00157 10.4759 5.85601 8.4987ZM4.85356 8.4987H1.85201C2.07601 11.2904 4.1593 13.5575 6.86272 14.061C5.68666 12.4365 4.98768 10.5093 4.85356 8.4987ZM9.13467 14.061C10.3107 12.4365 11.0097 10.5093 11.1438 8.4987H14.1454C13.9214 11.2904 11.8381 13.5575 9.13467 14.061Z" fill="#CDCDCD"/>
</g>
<defs>
<clipPath id="clip0_1254_10938">
<rect width="16" height="16" fill="white"/>
</clipPath>
</defs>
</svg>
