<svg width="32" height="32" viewBox="0 0 32 32" fill="none" xmlns="http://www.w3.org/2000/svg">
<circle cx="16" cy="16" r="15" fill="#51CDDE" fill-opacity="0.1" stroke="url(#paint0_linear_1254_10723)"/>
<path fill-rule="evenodd" clip-rule="evenodd" d="M12.5413 10.0234H12.5734H14.172H14.2041H14.2041H14.2041C15.0169 10.0234 15.6725 10.0234 16.2034 10.0668C16.7501 10.1115 17.2302 10.2058 17.6744 10.4322C18.38 10.7917 18.9537 11.3654 19.3132 12.071C19.5396 12.5152 19.6339 12.9953 19.6786 13.542C19.722 14.0729 19.722 14.7285 19.722 15.5413V15.5734V16.4254V16.4575C19.722 17.2704 19.722 17.926 19.6786 18.4569C19.6339 19.0035 19.5396 19.4837 19.3132 19.9279C18.9537 20.6335 18.38 21.2072 17.6744 21.5667C17.2302 21.793 16.7501 21.8874 16.2034 21.932C15.6725 21.9754 15.0169 21.9754 14.2041 21.9754H14.172H12.5734H12.5413C11.7285 21.9754 11.0729 21.9754 10.542 21.932C9.99533 21.8874 9.51519 21.793 9.07097 21.5667C8.36537 21.2072 7.79169 20.6335 7.43216 19.9279C7.20582 19.4837 7.11146 19.0035 7.0668 18.4569C7.02342 17.926 7.02343 17.2704 7.02344 16.4575V16.4575V16.4575V16.4254V15.5734V15.5413V15.5413V15.5413C7.02343 14.7285 7.02342 14.0729 7.0668 13.542C7.11146 12.9953 7.20582 12.5152 7.43216 12.071C7.79169 11.3654 8.36537 10.7917 9.07097 10.4322C9.51519 10.2058 9.99533 10.1115 10.542 10.0668C11.0729 10.0234 11.7285 10.0234 12.5413 10.0234H12.5413H12.5413ZM22.3193 12.499C23.486 11.8184 24.9511 12.6599 24.9511 14.0106V17.9942C24.9511 19.3448 23.486 20.1863 22.3193 19.5058L21.3331 18.9305C20.7954 18.6169 20.4648 18.0413 20.4648 17.4189V14.5859C20.4648 13.9635 20.7954 13.3879 21.3331 13.0743L22.3193 12.499Z" fill="#51CDDE"/>
<path fill-rule="evenodd" clip-rule="evenodd" d="M12.5413 10.0234H12.5734H14.172H14.2041H14.2041H14.2041C15.0169 10.0234 15.6725 10.0234 16.2034 10.0668C16.7501 10.1115 17.2302 10.2058 17.6744 10.4322C18.38 10.7917 18.9537 11.3654 19.3132 12.071C19.5396 12.5152 19.6339 12.9953 19.6786 13.542C19.722 14.0729 19.722 14.7285 19.722 15.5413V15.5734V16.4254V16.4575C19.722 17.2704 19.722 17.926 19.6786 18.4569C19.6339 19.0035 19.5396 19.4837 19.3132 19.9279C18.9537 20.6335 18.38 21.2072 17.6744 21.5667C17.2302 21.793 16.7501 21.8874 16.2034 21.932C15.6725 21.9754 15.0169 21.9754 14.2041 21.9754H14.172H12.5734H12.5413C11.7285 21.9754 11.0729 21.9754 10.542 21.932C9.99533 21.8874 9.51519 21.793 9.07097 21.5667C8.36537 21.2072 7.79169 20.6335 7.43216 19.9279C7.20582 19.4837 7.11146 19.0035 7.0668 18.4569C7.02342 17.926 7.02343 17.2704 7.02344 16.4575V16.4575V16.4575V16.4254V15.5734V15.5413V15.5413V15.5413C7.02343 14.7285 7.02342 14.0729 7.0668 13.542C7.11146 12.9953 7.20582 12.5152 7.43216 12.071C7.79169 11.3654 8.36537 10.7917 9.07097 10.4322C9.51519 10.2058 9.99533 10.1115 10.542 10.0668C11.0729 10.0234 11.7285 10.0234 12.5413 10.0234H12.5413H12.5413ZM22.3193 12.499C23.486 11.8184 24.9511 12.6599 24.9511 14.0106V17.9942C24.9511 19.3448 23.486 20.1863 22.3193 19.5058L21.3331 18.9305C20.7954 18.6169 20.4648 18.0413 20.4648 17.4189V14.5859C20.4648 13.9635 20.7954 13.3879 21.3331 13.0743L22.3193 12.499Z" fill="url(#paint1_radial_1254_10723)" fill-opacity="0.5"/>
<defs>
<linearGradient id="paint0_linear_1254_10723" x1="1" y1="1" x2="32.1502" y2="2.24601" gradientUnits="userSpaceOnUse">
<stop stop-color="#51CDDE"/>
<stop offset="1" stop-color="#51CDDE" stop-opacity="0.6"/>
</linearGradient>
<radialGradient id="paint1_radial_1254_10723" cx="0" cy="0" r="1" gradientUnits="userSpaceOnUse" gradientTransform="translate(16.2171 10.6132) rotate(90) scale(6.19298 15.1096)">
<stop stop-color="#E2FFFE"/>
<stop offset="1" stop-color="#E2FFFE" stop-opacity="0"/>
</radialGradient>
</defs>
</svg>
